HIERARCHY
ROOT base
{
	OFFSET 0.000000 0.000000 0.000000
	CHANNELS 6 Xposition Yposition Zposition Xrotation Yrotation Zrotation
	JOINT torso
	{
		OFFSET 0.000000 0.000000 0.686711
		CHANNELS 3 Xrotation Yrotation Zrotation
		JOINT head
		{
			OFFSET 0.000000 0.000000 0.327530
			CHANNELS 3 Xrotation Yrotation Zrotation
			End Site
			{
				OFFSET 0.000000 0.000000 0.135284
			}
		}
		JOINT arm.upper.left
		{
			OFFSET 0.119493 0.000000 0.294566
			CHANNELS 6 Xposition Yposition Zposition Xrotation Yrotation Zrotation
			JOINT arm.lower.left
			{
				OFFSET 0.002060 0.000000 -0.253407
				CHANNELS 3 Xrotation Yrotation Zrotation
				End Site
				{
					OFFSET 0.016482 0.000000 -0.185420
				}
			}
		}
		JOINT arm.upper.right
		{
			OFFSET -0.119493 0.000000 0.294566
			CHANNELS 6 Xposition Yposition Zposition Xrotation Yrotation Zrotation
			JOINT arm.lower.right
			{
				OFFSET -0.002060 0.000000 -0.253407
				CHANNELS 3 Xrotation Yrotation Zrotation
				End Site
				{
					OFFSET -0.016482 0.000000 -0.185420
				}
			}
		}
	}
	JOINT leg.upper.left
	{
		OFFSET 0.067642 0.000000 0.633309
		CHANNELS 6 Xposition Yposition Zposition Xrotation Yrotation Zrotation
		JOINT leg.lower.left
		{
			OFFSET 0.000000 0.000000 -0.291929
			CHANNELS 3 Xrotation Yrotation Zrotation
			End Site
			{
				OFFSET 0.014240 0.000000 -0.334650
			}
		}
	}
	JOINT leg.upper.right
	{
		OFFSET -0.067642 0.000000 0.633309
		CHANNELS 6 Xposition Yposition Zposition Xrotation Yrotation Zrotation
		JOINT leg.lower.right
		{
			OFFSET 0.000000 0.000000 -0.291929
			CHANNELS 3 Xrotation Yrotation Zrotation
			End Site
			{
				OFFSET -0.014240 0.000000 -0.334650
			}
		}
	}
}
MOTION
Frames: 20
Frame Time: 0.041667
0.000000 0.000000 0.000000 -0.000000 0.000000 -0.000000 -0.000000 0.000000 -0.000000 -0.000000 0.000000 -0.000000 0.119493 -0.000000 0.294566 -12.706726 -1.712767 -0.527874 -0.253794 4.403203 -0.183181 -0.119493 -0.000000 0.294566 11.264466 0.967581 -0.124377 -102.911567 -1.386086 5.105321 0.067642 0.000000 0.633309 10.063479 -1.172653 0.217058 0.370974 2.260411 0.088527 -0.067642 0.000000 0.633309 -11.731768 1.155063 0.249935 -0.381397 -2.280750 0.103109 
0.000000 0.000000 0.000000 -0.000000 0.000000 -0.000000 -0.000000 0.000000 -0.000000 -0.000000 0.000000 -0.000000 0.119493 0.000000 0.294566 -12.016777 -1.720977 -0.499838 -0.239897 4.403166 -0.173184 -0.119493 -0.000000 0.294566 11.264466 0.967581 -0.124377 -102.911567 -1.386086 5.105321 0.067642 0.000000 0.633309 9.469730 -1.174533 0.204389 0.350360 2.260935 0.083274 -0.067642 0.000000 0.633309 -11.138026 1.157891 0.237443 -0.360789 -2.280160 0.097863 
0.000000 0.000000 0.000000 -0.000000 0.000000 -0.000000 -0.000000 0.000000 -0.000000 -0.000000 0.000000 -0.000000 0.119493 0.000000 0.294566 -9.941685 -1.743629 -0.414938 -0.198209 4.403066 -0.143191 -0.119493 -0.000000 0.294566 11.264466 0.967581 -0.124377 -102.911567 -1.386086 5.105321 0.067642 0.000000 0.633309 7.685093 -1.179393 0.166201 0.288522 2.262518 0.067514 -0.067642 0.000000 0.633309 -9.353411 1.165610 0.199730 -0.298953 -2.278399 0.082122 
0.000000 0.000000 0.000000 -0.000000 0.000000 -0.000000 -0.000000 0.000000 -0.000000 -0.000000 0.000000 -0.000000 0.119493 0.000000 0.294566 -6.596698 -1.773650 -0.276492 -0.131269 4.402951 -0.095032 -0.119493 -0.000000 0.294566 11.264466 0.967581 -0.124377 -102.911567 -1.386086 5.105320 0.067642 0.000000 0.633309 4.811231 -1.184714 0.104444 0.189230 2.265094 0.042213 -0.067642 0.000000 0.633309 -6.479570 1.175561 0.138548 -0.199667 -2.275607 0.056844 
0.000000 0.000000 0.000000 -0.000000 0.000000 -0.000000 -0.000000 0.000000 -0.000000 -0.000000 0.000000 -0.000000 0.119493 0.000000 0.294566 -2.325946 -1.800190 -0.097555 -0.046112 4.402887 -0.033767 -0.119493 -0.000000 0.294566 11.264467 0.967581 -0.124377 -102.911567 -1.386086 5.105320 0.067642 0.000000 0.633309 1.145468 -1.186997 0.025415 0.062918 2.268435 0.010032 -0.067642 0.000000 0.633309 -2.813825 1.183783 0.059915 -0.073358 -2.272118 0.024679 
0.000000 0.000000 0.000000 -0.000000 0.000000 -0.000000 -0.000000 0.000000 -0.000000 -0.000000 0.000000 -0.000000 0.119493 0.000000 0.294566 2.288630 -1.813854 0.097441 0.045762 4.402920 0.032332 -0.119493 -0.000000 0.294566 11.264467 0.967581 -0.124377 -102.911567 -1.386086 5.105320 0.067642 0.000000 0.633309 -2.813826 -1.183783 -0.059915 -0.073357 2.272119 -0.024679 -0.067642 0.000000 0.633309 1.145468 1.186997 -0.025415 0.062918 -2.268434 -0.010032 
0.000000 0.000000 0.000000 -0.000000 0.000000 -0.000000 -0.000000 0.000000 -0.000000 -0.000000 0.000000 -0.000000 0.119493 0.000000 0.294566 6.559549 -1.812531 0.278348 0.130919 4.403045 0.093597 -0.119493 -0.000000 0.294566 11.264466 0.967581 -0.124377 -102.911567 -1.386086 5.105320 0.067642 0.000000 0.633309 -6.479572 -1.175562 -0.138548 -0.199667 2.275608 -0.056844 -0.067642 0.000000 0.633309 4.811233 1.184714 -0.104444 0.189230 -2.265094 -0.042213 
0.000000 0.000000 0.000000 -0.000000 0.000000 -0.000000 -0.000000 0.000000 -0.000000 -0.000000 0.000000 -0.000000 0.119493 0.000000 0.294566 9.904769 -1.802119 0.419652 0.197858 4.403206 0.141756 -0.119493 -0.000000 0.294566 11.264467 0.967581 -0.124377 -102.911567 -1.386086 5.105320 0.067642 0.000000 0.633309 -9.353408 -1.165612 -0.199730 -0.298953 2.278400 -0.082122 -0.067642 0.000000 0.633309 7.685092 1.179394 -0.166201 0.288521 -2.262517 -0.067514 
0.000000 0.000000 0.000000 -0.000000 0.000000 -0.000000 -0.000000 0.000000 -0.000000 -0.000000 0.000000 -0.000000 0.119493 0.000000 0.294566 11.980057 -1.791533 0.506901 0.239546 4.403335 0.171749 -0.119493 -0.000000 0.294566 11.264467 0.967581 -0.124377 -102.911567 -1.386086 5.105320 0.067642 0.000000 0.633309 -11.138026 -1.157893 -0.237443 -0.360787 2.280161 -0.097863 -0.067642 0.000000 0.633309 9.469731 1.174535 -0.204389 0.350360 -2.260935 -0.083274 
0.000000 0.000000 0.000000 -0.000000 0.000000 -0.000000 -0.000000 0.000000 -0.000000 -0.000000 0.000000 -0.000000 0.119493 0.000000 0.294566 12.670073 -1.787317 0.535816 0.253443 4.403384 0.181745 -0.119493 -0.000000 0.294566 11.264467 0.967581 -0.124377 -102.911567 -1.386086 5.105320 0.067642 0.000000 0.633309 -11.731767 -1.155066 -0.249935 -0.381398 2.280752 -0.103109 -0.067642 0.000000 0.633309 10.063480 1.172654 -0.217058 0.370971 -2.260411 -0.088527 
0.000000 0.000000 0.000000 -0.000000 0.000000 -0.000000 -0.000000 0.000000 -0.000000 -0.000000 0.000000 -0.000000 0.119493 0.000000 0.294566 12.111723 -1.790755 0.512423 0.242197 4.403345 0.173655 -0.119493 -0.000000 0.294566 11.264467 0.967581 -0.124377 -102.911567 -1.386086 5.105320 0.067642 0.000000 0.633309 -11.251309 -1.157364 -0.239829 -0.364719 2.280272 -0.098864 -0.067642 0.000000 0.633309 9.583017 1.174186 -0.206808 0.354291 -2.260835 -0.084276 
0.000000 0.000000 0.000000 -0.000000 0.000000 -0.000000 -0.000000 0.000000 -0.000000 -0.000000 0.000000 -0.000000 0.119493 0.000000 0.294566 10.427967 -1.799747 0.441685 0.208357 4.403236 0.149308 -0.119493 -0.000000 0.294566 11.264467 0.967581 -0.124377 -102.911567 -1.386086 5.105320 0.067642 0.000000 0.633309 -9.803182 -1.163777 -0.209257 -0.314522 2.278841 -0.086086 -0.067642 0.000000 0.633309 8.134874 1.178282 -0.175840 0.304093 -2.262117 -0.071482 
0.000000 0.000000 0.000000 -0.000000 0.000000 -0.000000 -0.000000 0.000000 -0.000000 -0.000000 0.000000 -0.000000 0.119493 0.000000 0.294566 7.680999 -1.809957 0.325787 0.153329 4.403092 0.109720 -0.119493 -0.000000 0.294566 11.264467 0.967581 -0.124377 -102.911567 -1.386086 5.105320 0.067642 0.000000 0.633309 -7.442664 -1.172570 -0.159106 -0.232906 2.276537 -0.065307 -0.067642 0.000000 0.633309 5.774333 1.183277 -0.125169 0.222471 -2.264226 -0.050683 
0.000000 0.000000 0.000000 -0.000000 0.000000 -0.000000 -0.000000 0.000000 -0.000000 -0.000000 0.000000 -0.000000 0.119493 0.000000 0.294566 4.075303 -1.814936 0.173132 0.081357 4.402962 0.057940 -0.119493 -0.000000 0.294566 11.264467 0.967581 -0.124377 -102.911567 -1.386086 5.105320 0.067642 0.000000 0.633309 -4.347019 -1.180957 -0.092866 -0.126154 2.273569 -0.038124 -0.067642 0.000000 0.633309 2.678669 1.186657 -0.058485 0.115716 -2.267030 -0.023483 
0.000000 0.000000 0.000000 -0.000000 0.000000 -0.000000 -0.000000 0.000000 -0.000000 -0.000000 0.000000 -0.000000 0.119493 0.000000 0.294566 -0.018672 -1.808979 -0.000195 -0.000175 4.402891 -0.000718 -0.119493 -0.000000 0.294566 11.264466 0.967581 -0.124377 -102.911567 -1.386086 5.105320 0.067642 0.000000 0.633309 -0.834177 -1.186127 -0.017278 -0.005220 2.270267 -0.007324 -0.067642 0.000000 0.633309 -0.834181 1.186127 0.017278 -0.005220 -2.270267 0.007324 
0.000000 0.000000 0.000000 -0.000000 0.000000 -0.000000 -0.000000 0.000000 -0.000000 -0.000000 0.000000 -0.000000 0.119493 0.000000 0.294566 -4.112568 -1.790705 -0.172652 -0.081707 4.402903 -0.059376 -0.119493 -0.000000 0.294566 11.264466 0.967581 -0.124377 -102.911567 -1.386086 5.105320 0.067642 0.000000 0.633309 2.678671 -1.186657 0.058485 0.115716 2.267030 0.023483 -0.067642 0.000000 0.633309 -4.347021 1.180956 0.092866 -0.126154 -2.273568 0.038124 
0.000000 0.000000 0.000000 -0.000000 0.000000 -0.000000 -0.000000 0.000000 -0.000000 -0.000000 0.000000 -0.000000 0.119493 0.000000 0.294566 -7.718083 -1.764484 -0.323101 -0.153679 4.402985 -0.111155 -0.119493 -0.000000 0.294566 11.264466 0.967581 -0.124377 -102.911567 -1.386086 5.105321 0.067642 0.000000 0.633309 5.774337 -1.183275 0.125169 0.222472 2.264226 0.050683 -0.067642 0.000000 0.633309 -7.442666 1.172568 0.159106 -0.232905 -2.276537 0.065307 
0.000000 0.000000 0.000000 -0.000000 0.000000 -0.000000 -0.000000 0.000000 -0.000000 -0.000000 0.000000 -0.000000 0.119493 0.000000 0.294566 -10.464841 -1.738208 -0.436420 -0.208706 4.403090 -0.150743 -0.119493 -0.000000 0.294566 11.264466 0.967581 -0.124377 -102.911567 -1.386086 5.105321 0.067642 0.000000 0.633309 8.134877 -1.178280 0.175840 0.304093 2.262117 0.071482 -0.067642 0.000000 0.633309 -9.803184 1.163775 0.209257 -0.314524 -2.278841 0.086086 
0.000000 0.000000 0.000000 -0.000000 0.000000 -0.000000 -0.000000 0.000000 -0.000000 -0.000000 0.000000 -0.000000 0.119493 -0.000000 0.294566 -12.148434 -1.719436 -0.505196 -0.242548 4.403174 -0.175091 -0.119493 -0.000000 0.294566 11.264467 0.967581 -0.124377 -102.911567 -1.386086 5.105321 0.067642 0.000000 0.633309 9.583016 -1.174184 0.206807 0.354291 2.260834 0.084276 -0.067642 0.000000 0.633309 -11.251308 1.157362 0.239829 -0.364719 -2.280272 0.098864 
0.000000 0.000000 0.000000 -0.000000 0.000000 -0.000000 -0.000000 0.000000 -0.000000 -0.000000 0.000000 -0.000000 0.119493 -0.000000 0.294566 -12.706726 -1.712767 -0.527874 -0.253794 4.403203 -0.183181 -0.119493 -0.000000 0.294566 11.264466 0.967581 -0.124377 -102.911567 -1.386086 5.105321 0.067642 0.000000 0.633309 10.063479 -1.172653 0.217058 0.370974 2.260411 0.088527 -0.067642 0.000000 0.633309 -11.731768 1.155063 0.249935 -0.381397 -2.280750 0.103109 
